# xmcd CD database file
#
# Track frame offsets:
#	150
#	15492
#	30972
#	41155
#	53160
#	71162
#	85712
#	102422
#	117472
#	133742
#	151370
#	162202
#	176957
#	192407
#
# Disc length: 2936 seconds
#
# Revision: 4
# Processed by: cddbd v1.5.2PL0 Copyright (c) Steve Scherf et al.
# Submitted via: CDex 1.51
#
DISCID=bd0b760e
DTITLE=Etta James - These Foolish Things - The Classic Baladry Of Etta James
DYEAR=2001
DGENRE=Blues
TTITLE0=Only Time Will Tell
TTITLE1=I Want To Be Loved (But Only By You)
TTITLE2=Prisoner Of Love
TTITLE3=How Do You Speak To An Angel?
TTITLE4=These Foolish Things
TTITLE5=You Can't Talk To A Fool
TTITLE6=Again
TTITLE7=Tomorrow Night
TTITLE8=Don't Take Your Love From Me
TTITLE9=Lover Man (Oh, Where Can You Be)
TTITLE10=Don't Blame Me
TTITLE11=I Won't Cry Anymore
TTITLE12=Tell It Like It Is
TTITLE13=Hold Back The Tears
EXTD=YEAR: 2001
EXTT0=
EXTT1=
EXTT2=
EXTT3=
EXTT4=
EXTT5=
EXTT6=
EXTT7=
EXTT8=
EXTT9=
EXTT10=
EXTT11=
EXTT12=
EXTT13=
PLAYORDER=
